<svg width="30" height="30" viewBox="0 0 30 30" fill="none" xmlns="http://www.w3.org/2000/svg">
<circle cx="14.9166" cy="14.9166" r="14.9166" fill="#ED6D3B"/>
<path d="M19.1786 22.4274C19.1786 22.7224 18.818 22.8863 18.6213 22.6569L15.3757 19.4113C15.179 19.2146 14.884 19.2146 14.6873 19.4113L11.2122 22.6896C10.9827 22.8863 10.6548 22.7552 10.6548 22.4602V8.35985C10.6548 7.63861 11.245 7.0485 11.9662 7.0485H17.8706C18.5918 7.0485 19.1819 7.63861 19.1819 8.35985V22.4274H19.1786ZM17.3919 19.5424C17.5591 19.7096 17.8476 19.5916 17.8476 19.3555V8.64835C17.8476 8.50082 17.7296 8.3828 17.5821 8.3828H12.2547C12.1072 8.3828 11.9891 8.50082 11.9891 8.64835V19.5129C11.9891 19.7457 12.2678 19.867 12.4383 19.7063L13.766 18.454C14.484 17.7557 15.6085 17.759 16.3199 18.4704L17.3952 19.5457L17.3919 19.5424Z" fill="white"/>
</svg>
