<svg width="16" height="16" viewBox="0 0 16 16" fill="none" xmlns="http://www.w3.org/2000/svg">
<path fill-rule="evenodd" clip-rule="evenodd" d="M14.923 9.23049H13.9999C13.7538 9.23049 13.5384 9.44589 13.5384 9.69205V13.0768C13.5384 13.323 13.323 13.5384 13.0768 13.5384H2.92304C2.67689 13.5384 2.4615 13.323 2.4615 13.0768V6.61499C2.4615 6.36883 2.67689 6.15343 2.92304 6.15343H4.1538C4.39995 6.15343 4.61534 5.93804 4.61534 5.69187V4.76876C4.61534 4.52259 4.39995 4.3072 4.1538 4.3072H1.84612C1.1692 4.3072 0.615356 4.86107 0.615356 5.53802V14.1538C0.615356 14.8307 1.1692 15.3846 1.84612 15.3846H14.1538C14.8307 15.3846 15.3845 14.8307 15.3845 14.1538V9.69205C15.3845 9.44589 15.1691 9.23049 14.923 9.23049ZM10.4614 4.30786C7.38453 4.30786 4.58455 7.04644 4.33839 10.2774C4.30762 10.5235 4.52301 10.7697 4.79993 10.7697H5.723C5.96915 10.7697 6.15377 10.5851 6.18454 10.3697C6.39992 8.06187 8.36914 6.15409 10.7691 6.15409H11.2614C11.5384 6.15409 11.6614 6.49257 11.4768 6.6772L9.78452 8.40035C9.59991 8.58497 9.59991 8.86191 9.78452 9.04653L10.4307 9.69271C10.6153 9.87734 10.8922 9.87734 11.0768 9.69271L15.2614 5.53868C15.446 5.35406 15.446 5.07712 15.2614 4.8925L11.1076 0.738468C10.923 0.553844 10.6461 0.553844 10.4614 0.738468L9.81529 1.38465C9.63068 1.56927 9.59991 1.84621 9.78452 2.03083L11.5076 3.75399C11.6922 3.93861 11.5691 4.27709 11.2922 4.27709L10.4614 4.30786V4.30786Z" fill="#ED6D3B"/>
</svg>
