<svg width="17" height="17" viewBox="0 0 17 17" fill="none" xmlns="http://www.w3.org/2000/svg">
<path fill-rule="evenodd" clip-rule="evenodd" d="M7.46342 11.3655L4.55238 15.4842L3.80913 13.5023H1.82715L4.36657 10.0648C4.86206 10.3745 5.38853 10.4055 5.76015 10.4984C5.88402 10.5293 6.03886 10.5603 6.1008 10.5603C6.16274 10.5913 6.28661 10.6842 6.34855 10.7461C6.62727 10.9319 6.99889 11.2106 7.46342 11.3655ZM12.1706 10.0648C11.6751 10.3745 11.1486 10.4055 10.777 10.4984C10.6531 10.5293 10.4673 10.5603 10.4053 10.5603C10.3434 10.5913 10.2195 10.6842 10.1576 10.7461C9.87888 10.9319 9.53823 11.2416 9.0737 11.3965L11.9847 15.4842L12.728 13.5023H14.71L12.1706 10.0648ZM8.26872 3.5915C7.3087 3.5915 6.53448 4.3657 6.53448 5.32571C6.53448 6.28572 7.3087 7.05993 8.26872 7.05993C9.22874 7.05993 10.003 6.28572 10.003 5.32571C10.003 4.3657 9.22874 3.5915 8.26872 3.5915ZM12.9759 5.32652C12.9759 5.91491 12.3256 6.37943 12.1088 6.90589C11.892 7.46331 12.0159 8.23751 11.5824 8.6401C11.1798 9.04268 10.4055 8.94978 9.84811 9.16656C9.32165 9.38333 8.85712 10.0337 8.26872 10.0337C7.68032 10.0337 7.21579 9.38333 6.68933 9.16656C6.13189 8.94978 5.35768 9.07365 4.95509 8.6401C4.5525 8.23751 4.64541 7.46331 4.42863 6.90589C4.21185 6.37943 3.56151 5.91491 3.56151 5.32652C3.56151 4.73812 4.21185 4.2736 4.42863 3.74714C4.64541 3.18972 4.52153 2.41552 4.95509 2.01293C5.35768 1.61035 6.13189 1.70325 6.68933 1.48647C7.21579 1.2697 7.68032 0.619368 8.26872 0.619368C8.85712 0.619368 9.32165 1.2697 9.84811 1.48647C10.4055 1.70325 11.1798 1.57938 11.5824 2.01293C11.9849 2.41552 11.892 3.18972 12.1088 3.74714C12.3256 4.2736 12.9759 4.73812 12.9759 5.32652ZM11.4893 5.32621C11.4893 3.53006 10.0647 2.10553 8.26854 2.10553C6.47236 2.10553 5.04781 3.53006 5.04781 5.32621C5.04781 7.12236 6.47236 8.54689 8.26854 8.54689C10.0647 8.54689 11.4893 7.12236 11.4893 5.32621Z" fill="#ED6D3B"/>
</svg>
