<svg width="16" height="16" viewBox="0 0 16 16" fill="none" xmlns="http://www.w3.org/2000/svg">
<path fill-rule="evenodd" clip-rule="evenodd" d="M15.2647 13.93L11.1426 9.83996C11.9732 8.67137 12.4039 7.19526 12.1885 5.62689C11.8194 2.98218 9.66608 0.891023 6.98982 0.645004C3.35995 0.275975 0.283787 3.35121 0.652926 7.01075C0.899019 9.65545 2.99081 11.8389 5.63631 12.2079C7.20515 12.4232 8.68171 11.9926 9.85065 11.1623L13.9419 15.2524C14.1265 15.4369 14.4034 15.4369 14.5879 15.2524L15.2339 14.6066C15.4185 14.4221 15.4185 14.1145 15.2647 13.93V13.93ZM2.46785 6.42676C2.46785 4.24334 4.25202 2.4597 6.4361 2.4597C8.62017 2.4597 10.4043 4.24334 10.4043 6.42676C10.4043 8.61018 8.62017 10.3938 6.4361 10.3938C4.25202 10.3938 2.46785 8.64093 2.46785 6.42676V6.42676Z" fill="#747474"/>
</svg>
